<mxfile host="app.diagrams.net" agent="Mozilla/5.0 (Windows NT 10.0; Win64; x64) AppleWebKit/537.36 (KHTML, like Gecko) Chrome/127.0.0.0 Safari/537.36" version="24.7.5">
  <diagram name="Page-1" id="51peNo469PXhZoFmVbti">
    <mxGraphModel dx="2062" dy="665" grid="1" gridSize="10" guides="1" tooltips="1" connect="1" arrows="1" fold="1" page="1" pageScale="1" pageWidth="827" pageHeight="1169" math="0" shadow="0">
      <root>
        <mxCell id="0" />
        <mxCell id="1" parent="0" />
        <mxCell id="Gr67rD7cwxrrbpagc7k7-1" style="rounded=0;orthogonalLoop=1;jettySize=auto;html=1;entryX=1;entryY=0.5;entryDx=0;entryDy=0;endArrow=none;endFill=0;exitX=-0.002;exitY=0.18;exitDx=0;exitDy=0;exitPerimeter=0;" edge="1" parent="1" source="Gr67rD7cwxrrbpagc7k7-73" target="Gr67rD7cwxrrbpagc7k7-32">
          <mxGeometry relative="1" as="geometry">
            <mxPoint x="-170.72" y="1143.81" as="sourcePoint" />
          </mxGeometry>
        </mxCell>
        <mxCell id="Gr67rD7cwxrrbpagc7k7-8" value="Form" style="rounded=0;whiteSpace=wrap;html=1;" vertex="1" parent="1">
          <mxGeometry x="120.91" y="853.84" width="120" height="40" as="geometry" />
        </mxCell>
        <mxCell id="Gr67rD7cwxrrbpagc7k7-14" style="rounded=0;orthogonalLoop=1;jettySize=auto;html=1;exitX=0.75;exitY=0;exitDx=0;exitDy=0;entryX=0.5;entryY=1;entryDx=0;entryDy=0;endArrow=none;endFill=0;" edge="1" parent="1" source="Gr67rD7cwxrrbpagc7k7-18" target="Gr67rD7cwxrrbpagc7k7-22">
          <mxGeometry relative="1" as="geometry" />
        </mxCell>
        <mxCell id="Gr67rD7cwxrrbpagc7k7-15" style="rounded=0;orthogonalLoop=1;jettySize=auto;html=1;exitX=0.25;exitY=0;exitDx=0;exitDy=0;entryX=0.5;entryY=1;entryDx=0;entryDy=0;endArrow=none;endFill=0;" edge="1" parent="1" source="Gr67rD7cwxrrbpagc7k7-18" target="Gr67rD7cwxrrbpagc7k7-23">
          <mxGeometry relative="1" as="geometry" />
        </mxCell>
        <mxCell id="Gr67rD7cwxrrbpagc7k7-16" style="rounded=0;orthogonalLoop=1;jettySize=auto;html=1;exitX=0.5;exitY=1;exitDx=0;exitDy=0;endArrow=none;endFill=0;entryX=0.5;entryY=0;entryDx=0;entryDy=0;" edge="1" parent="1" source="Gr67rD7cwxrrbpagc7k7-18" target="Gr67rD7cwxrrbpagc7k7-71">
          <mxGeometry relative="1" as="geometry">
            <mxPoint x="195.06" y="1197.6699999999998" as="targetPoint" />
          </mxGeometry>
        </mxCell>
        <mxCell id="Gr67rD7cwxrrbpagc7k7-107" style="edgeStyle=orthogonalEdgeStyle;rounded=0;orthogonalLoop=1;jettySize=auto;html=1;exitX=1;exitY=0.5;exitDx=0;exitDy=0;entryX=0;entryY=0.5;entryDx=0;entryDy=0;shape=link;" edge="1" parent="1" source="Gr67rD7cwxrrbpagc7k7-18" target="Gr67rD7cwxrrbpagc7k7-26">
          <mxGeometry relative="1" as="geometry" />
        </mxCell>
        <mxCell id="Gr67rD7cwxrrbpagc7k7-18" value="Submission" style="rounded=0;whiteSpace=wrap;html=1;" vertex="1" parent="1">
          <mxGeometry x="-135" y="853.8400000000001" width="120" height="40" as="geometry" />
        </mxCell>
        <mxCell id="Gr67rD7cwxrrbpagc7k7-22" value="SubmissionDate" style="ellipse;whiteSpace=wrap;html=1;" vertex="1" parent="1">
          <mxGeometry x="-80" y="795" width="100" height="40" as="geometry" />
        </mxCell>
        <mxCell id="Gr67rD7cwxrrbpagc7k7-23" value="&lt;u&gt;Id&lt;/u&gt;" style="ellipse;whiteSpace=wrap;html=1;" vertex="1" parent="1">
          <mxGeometry x="-160" y="795" width="70" height="30" as="geometry" />
        </mxCell>
        <mxCell id="Gr67rD7cwxrrbpagc7k7-25" style="edgeStyle=orthogonalEdgeStyle;rounded=0;orthogonalLoop=1;jettySize=auto;html=1;exitX=1;exitY=0.5;exitDx=0;exitDy=0;entryX=0;entryY=0.5;entryDx=0;entryDy=0;endArrow=none;endFill=0;" edge="1" parent="1" source="Gr67rD7cwxrrbpagc7k7-26" target="Gr67rD7cwxrrbpagc7k7-8">
          <mxGeometry relative="1" as="geometry" />
        </mxCell>
        <mxCell id="Gr67rD7cwxrrbpagc7k7-26" value="refer" style="rhombus;whiteSpace=wrap;html=1;" vertex="1" parent="1">
          <mxGeometry x="20" y="843.84" width="70" height="60" as="geometry" />
        </mxCell>
        <mxCell id="Gr67rD7cwxrrbpagc7k7-27" value="1" style="text;html=1;align=center;verticalAlign=middle;whiteSpace=wrap;rounded=0;" vertex="1" parent="1">
          <mxGeometry x="108" y="855.49" width="11" height="17.75" as="geometry" />
        </mxCell>
        <mxCell id="Gr67rD7cwxrrbpagc7k7-28" value="N" style="text;html=1;align=center;verticalAlign=middle;whiteSpace=wrap;rounded=0;" vertex="1" parent="1">
          <mxGeometry x="-9" y="859.37" width="9" height="10" as="geometry" />
        </mxCell>
        <mxCell id="Gr67rD7cwxrrbpagc7k7-30" value="1" style="text;html=1;align=center;verticalAlign=middle;whiteSpace=wrap;rounded=0;" vertex="1" parent="1">
          <mxGeometry x="-89" y="896.34" width="10" height="13.16" as="geometry" />
        </mxCell>
        <mxCell id="Gr67rD7cwxrrbpagc7k7-31" value="N" style="text;html=1;align=center;verticalAlign=middle;whiteSpace=wrap;rounded=0;" vertex="1" parent="1">
          <mxGeometry x="-90" y="975" width="10" height="10" as="geometry" />
        </mxCell>
        <mxCell id="Gr67rD7cwxrrbpagc7k7-32" value="&lt;u&gt;Id&lt;/u&gt;" style="ellipse;whiteSpace=wrap;html=1;" vertex="1" parent="1">
          <mxGeometry x="-233.39" y="977" width="33.39" height="23" as="geometry" />
        </mxCell>
        <mxCell id="Gr67rD7cwxrrbpagc7k7-37" value="NoteText" style="ellipse;whiteSpace=wrap;html=1;" vertex="1" parent="1">
          <mxGeometry x="-253.53" y="1009.9999999999999" width="70" height="30" as="geometry" />
        </mxCell>
        <mxCell id="Gr67rD7cwxrrbpagc7k7-110" style="edgeStyle=orthogonalEdgeStyle;rounded=0;orthogonalLoop=1;jettySize=auto;html=1;exitX=0;exitY=0.5;exitDx=0;exitDy=0;entryX=1;entryY=0.5;entryDx=0;entryDy=0;endArrow=none;endFill=0;" edge="1" parent="1" source="Gr67rD7cwxrrbpagc7k7-50" target="Gr67rD7cwxrrbpagc7k7-56">
          <mxGeometry relative="1" as="geometry" />
        </mxCell>
        <mxCell id="Gr67rD7cwxrrbpagc7k7-50" value="Question" style="rounded=0;whiteSpace=wrap;html=1;" vertex="1" parent="1">
          <mxGeometry x="120.91" y="989.9999999999998" width="120" height="40" as="geometry" />
        </mxCell>
        <mxCell id="Gr67rD7cwxrrbpagc7k7-56" value="refers" style="rhombus;whiteSpace=wrap;html=1;" vertex="1" parent="1">
          <mxGeometry x="20" y="980" width="70" height="60" as="geometry" />
        </mxCell>
        <mxCell id="Gr67rD7cwxrrbpagc7k7-69" style="rounded=0;orthogonalLoop=1;jettySize=auto;html=1;exitX=0;exitY=0.75;exitDx=0;exitDy=0;entryX=1;entryY=0.5;entryDx=0;entryDy=0;endArrow=none;endFill=0;dashed=1;" edge="1" parent="1" source="Gr67rD7cwxrrbpagc7k7-73" target="Gr67rD7cwxrrbpagc7k7-37">
          <mxGeometry relative="1" as="geometry">
            <mxPoint x="-170.72" y="1163.81" as="sourcePoint" />
          </mxGeometry>
        </mxCell>
        <mxCell id="Gr67rD7cwxrrbpagc7k7-70" value="NoteText only exists if a Review exists for that Submission" style="shape=note;size=20;whiteSpace=wrap;html=1;" vertex="1" parent="1">
          <mxGeometry x="-270" y="873.2399999999998" width="110" height="85.75" as="geometry" />
        </mxCell>
        <mxCell id="Gr67rD7cwxrrbpagc7k7-108" style="edgeStyle=orthogonalEdgeStyle;rounded=0;orthogonalLoop=1;jettySize=auto;html=1;exitX=0.5;exitY=1;exitDx=0;exitDy=0;entryX=0.5;entryY=0;entryDx=0;entryDy=0;shape=link;" edge="1" parent="1" source="Gr67rD7cwxrrbpagc7k7-71" target="Gr67rD7cwxrrbpagc7k7-73">
          <mxGeometry relative="1" as="geometry" />
        </mxCell>
        <mxCell id="Gr67rD7cwxrrbpagc7k7-71" value="has" style="rhombus;whiteSpace=wrap;html=1;" vertex="1" parent="1">
          <mxGeometry x="-110" y="912.5" width="70" height="60" as="geometry" />
        </mxCell>
        <mxCell id="Gr67rD7cwxrrbpagc7k7-109" style="edgeStyle=orthogonalEdgeStyle;rounded=0;orthogonalLoop=1;jettySize=auto;html=1;exitX=1;exitY=0.5;exitDx=0;exitDy=0;entryX=0;entryY=0.5;entryDx=0;entryDy=0;shape=link;" edge="1" parent="1" source="Gr67rD7cwxrrbpagc7k7-73" target="Gr67rD7cwxrrbpagc7k7-56">
          <mxGeometry relative="1" as="geometry" />
        </mxCell>
        <mxCell id="Gr67rD7cwxrrbpagc7k7-111" style="edgeStyle=orthogonalEdgeStyle;rounded=0;orthogonalLoop=1;jettySize=auto;html=1;exitX=0.5;exitY=1;exitDx=0;exitDy=0;entryX=0.5;entryY=0;entryDx=0;entryDy=0;shape=link;" edge="1" parent="1" source="Gr67rD7cwxrrbpagc7k7-73" target="Gr67rD7cwxrrbpagc7k7-78">
          <mxGeometry relative="1" as="geometry" />
        </mxCell>
        <mxCell id="Gr67rD7cwxrrbpagc7k7-73" value="AnsweredQuestion" style="rounded=0;whiteSpace=wrap;html=1;" vertex="1" parent="1">
          <mxGeometry x="-135" y="990" width="120" height="40" as="geometry" />
        </mxCell>
        <mxCell id="Gr67rD7cwxrrbpagc7k7-76" value="Answer" style="rounded=0;whiteSpace=wrap;html=1;" vertex="1" parent="1">
          <mxGeometry x="-135" y="1120" width="120" height="40" as="geometry" />
        </mxCell>
        <mxCell id="Gr67rD7cwxrrbpagc7k7-77" style="edgeStyle=orthogonalEdgeStyle;rounded=0;orthogonalLoop=1;jettySize=auto;html=1;exitX=0.5;exitY=1;exitDx=0;exitDy=0;entryX=0.5;entryY=0;entryDx=0;entryDy=0;endArrow=none;endFill=0;" edge="1" parent="1" source="Gr67rD7cwxrrbpagc7k7-78" target="Gr67rD7cwxrrbpagc7k7-76">
          <mxGeometry relative="1" as="geometry" />
        </mxCell>
        <mxCell id="Gr67rD7cwxrrbpagc7k7-78" value="has" style="rhombus;whiteSpace=wrap;html=1;" vertex="1" parent="1">
          <mxGeometry x="-110" y="1046" width="70" height="60" as="geometry" />
        </mxCell>
        <mxCell id="Gr67rD7cwxrrbpagc7k7-79" style="edgeStyle=orthogonalEdgeStyle;rounded=0;orthogonalLoop=1;jettySize=auto;html=1;exitX=0.5;exitY=0;exitDx=0;exitDy=0;entryX=0.5;entryY=1;entryDx=0;entryDy=0;endArrow=none;endFill=0;" edge="1" parent="1" source="Gr67rD7cwxrrbpagc7k7-83" target="Gr67rD7cwxrrbpagc7k7-76">
          <mxGeometry relative="1" as="geometry" />
        </mxCell>
        <mxCell id="Gr67rD7cwxrrbpagc7k7-80" style="rounded=0;orthogonalLoop=1;jettySize=auto;html=1;exitX=0.5;exitY=1;exitDx=0;exitDy=0;entryX=0.5;entryY=0;entryDx=0;entryDy=0;endArrow=none;endFill=0;" edge="1" parent="1" source="Gr67rD7cwxrrbpagc7k7-83" target="Gr67rD7cwxrrbpagc7k7-87">
          <mxGeometry relative="1" as="geometry" />
        </mxCell>
        <mxCell id="Gr67rD7cwxrrbpagc7k7-81" style="rounded=0;orthogonalLoop=1;jettySize=auto;html=1;exitX=0.5;exitY=1;exitDx=0;exitDy=0;entryX=0.5;entryY=0;entryDx=0;entryDy=0;endArrow=none;endFill=0;" edge="1" parent="1" source="Gr67rD7cwxrrbpagc7k7-83" target="Gr67rD7cwxrrbpagc7k7-86">
          <mxGeometry relative="1" as="geometry" />
        </mxCell>
        <mxCell id="Gr67rD7cwxrrbpagc7k7-82" style="rounded=0;orthogonalLoop=1;jettySize=auto;html=1;exitX=0.5;exitY=1;exitDx=0;exitDy=0;entryX=0.5;entryY=0;entryDx=0;entryDy=0;endArrow=none;endFill=0;" edge="1" parent="1" source="Gr67rD7cwxrrbpagc7k7-83" target="Gr67rD7cwxrrbpagc7k7-88">
          <mxGeometry relative="1" as="geometry" />
        </mxCell>
        <mxCell id="Gr67rD7cwxrrbpagc7k7-83" value="d" style="ellipse;whiteSpace=wrap;html=1;aspect=fixed;" vertex="1" parent="1">
          <mxGeometry x="-90" y="1180" width="30" height="30" as="geometry" />
        </mxCell>
        <mxCell id="Gr67rD7cwxrrbpagc7k7-84" value="1" style="text;html=1;align=center;verticalAlign=middle;whiteSpace=wrap;rounded=0;" vertex="1" parent="1">
          <mxGeometry x="-86.75" y="1034" width="7.5" height="10" as="geometry" />
        </mxCell>
        <mxCell id="Gr67rD7cwxrrbpagc7k7-85" value="1" style="text;html=1;align=center;verticalAlign=middle;whiteSpace=wrap;rounded=0;" vertex="1" parent="1">
          <mxGeometry x="-85.25" y="1107" width="5" height="10" as="geometry" />
        </mxCell>
        <mxCell id="Gr67rD7cwxrrbpagc7k7-86" value="BooleanAnswer" style="rounded=0;whiteSpace=wrap;html=1;" vertex="1" parent="1">
          <mxGeometry x="-135" y="1259.9999999999998" width="120" height="40" as="geometry" />
        </mxCell>
        <mxCell id="Gr67rD7cwxrrbpagc7k7-87" value="StringAnswer" style="rounded=0;whiteSpace=wrap;html=1;" vertex="1" parent="1">
          <mxGeometry x="-260" y="1259.9999999999998" width="120" height="40" as="geometry" />
        </mxCell>
        <mxCell id="Gr67rD7cwxrrbpagc7k7-88" value="StringListAnswer" style="rounded=0;whiteSpace=wrap;html=1;" vertex="1" parent="1">
          <mxGeometry x="-9" y="1259.9999999999998" width="120" height="40" as="geometry" />
        </mxCell>
        <mxCell id="Gr67rD7cwxrrbpagc7k7-89" value="" style="endArrow=none;html=1;rounded=0;curved=1;" edge="1" parent="1">
          <mxGeometry width="50" height="50" relative="1" as="geometry">
            <mxPoint x="-120" y="1240" as="sourcePoint" />
            <mxPoint x="-130" y="1220" as="targetPoint" />
            <Array as="points">
              <mxPoint x="-140" y="1240" />
            </Array>
          </mxGeometry>
        </mxCell>
        <mxCell id="Gr67rD7cwxrrbpagc7k7-90" value="" style="endArrow=none;html=1;rounded=0;curved=1;" edge="1" parent="1">
          <mxGeometry width="50" height="50" relative="1" as="geometry">
            <mxPoint x="-85" y="1230" as="sourcePoint" />
            <mxPoint x="-65" y="1230" as="targetPoint" />
            <Array as="points">
              <mxPoint x="-75" y="1250" />
            </Array>
          </mxGeometry>
        </mxCell>
        <mxCell id="Gr67rD7cwxrrbpagc7k7-91" value="" style="endArrow=none;html=1;rounded=0;curved=1;" edge="1" parent="1">
          <mxGeometry width="50" height="50" relative="1" as="geometry">
            <mxPoint x="-29" y="1240" as="sourcePoint" />
            <mxPoint x="-19" y="1220" as="targetPoint" />
            <Array as="points">
              <mxPoint x="-9" y="1240" />
            </Array>
          </mxGeometry>
        </mxCell>
        <mxCell id="Gr67rD7cwxrrbpagc7k7-112" value="1" style="text;html=1;align=center;verticalAlign=middle;whiteSpace=wrap;rounded=0;" vertex="1" parent="1">
          <mxGeometry x="-10" y="990" width="10" height="13.16" as="geometry" />
        </mxCell>
        <mxCell id="Gr67rD7cwxrrbpagc7k7-113" value="1" style="text;html=1;align=center;verticalAlign=middle;whiteSpace=wrap;rounded=0;" vertex="1" parent="1">
          <mxGeometry x="107" y="991" width="10" height="13.16" as="geometry" />
        </mxCell>
      </root>
    </mxGraphModel>
  </diagram>
</mxfile>
